<mxfile host="app.diagrams.net" agent="Mozilla/5.0 (Windows NT 10.0; Win64; x64) AppleWebKit/537.36 (KHTML, like Gecko) Chrome/134.0.0.0 YaBrowser/25.4.0.0 Safari/537.36" version="27.0.8">
  <diagram id="C5RBs43oDa-KdzZeNtuy" name="Page-1">
    <mxGraphModel dx="2893" dy="1156" grid="1" gridSize="10" guides="1" tooltips="1" connect="1" arrows="1" fold="1" page="1" pageScale="1" pageWidth="827" pageHeight="1169" math="0" shadow="0">
      <root>
        <mxCell id="WIyWlLk6GJQsqaUBKTNV-0" />
        <mxCell id="WIyWlLk6GJQsqaUBKTNV-1" parent="WIyWlLk6GJQsqaUBKTNV-0" />
        <mxCell id="nTr_WlQU5-zZoNNcbKpj-7" value="" style="edgeStyle=orthogonalEdgeStyle;rounded=0;orthogonalLoop=1;jettySize=auto;html=1;" edge="1" parent="WIyWlLk6GJQsqaUBKTNV-1" source="nTr_WlQU5-zZoNNcbKpj-0" target="nTr_WlQU5-zZoNNcbKpj-6">
          <mxGeometry relative="1" as="geometry" />
        </mxCell>
        <mxCell id="nTr_WlQU5-zZoNNcbKpj-0" value="Открытие сайта" style="ellipse;whiteSpace=wrap;html=1;" vertex="1" parent="WIyWlLk6GJQsqaUBKTNV-1">
          <mxGeometry x="330" y="20" width="120" height="70" as="geometry" />
        </mxCell>
        <mxCell id="nTr_WlQU5-zZoNNcbKpj-9" value="" style="edgeStyle=orthogonalEdgeStyle;rounded=0;orthogonalLoop=1;jettySize=auto;html=1;" edge="1" parent="WIyWlLk6GJQsqaUBKTNV-1" source="nTr_WlQU5-zZoNNcbKpj-6" target="nTr_WlQU5-zZoNNcbKpj-8">
          <mxGeometry relative="1" as="geometry" />
        </mxCell>
        <mxCell id="nTr_WlQU5-zZoNNcbKpj-11" value="" style="edgeStyle=orthogonalEdgeStyle;rounded=0;orthogonalLoop=1;jettySize=auto;html=1;" edge="1" parent="WIyWlLk6GJQsqaUBKTNV-1" source="nTr_WlQU5-zZoNNcbKpj-6" target="nTr_WlQU5-zZoNNcbKpj-10">
          <mxGeometry relative="1" as="geometry" />
        </mxCell>
        <mxCell id="nTr_WlQU5-zZoNNcbKpj-6" value="Вход" style="rhombus;whiteSpace=wrap;html=1;" vertex="1" parent="WIyWlLk6GJQsqaUBKTNV-1">
          <mxGeometry x="350" y="120" width="80" height="80" as="geometry" />
        </mxCell>
        <mxCell id="nTr_WlQU5-zZoNNcbKpj-13" style="edgeStyle=orthogonalEdgeStyle;rounded=0;orthogonalLoop=1;jettySize=auto;html=1;" edge="1" parent="WIyWlLk6GJQsqaUBKTNV-1" source="nTr_WlQU5-zZoNNcbKpj-8">
          <mxGeometry relative="1" as="geometry">
            <mxPoint x="550" y="260" as="targetPoint" />
          </mxGeometry>
        </mxCell>
        <mxCell id="nTr_WlQU5-zZoNNcbKpj-8" value="Регистрация" style="whiteSpace=wrap;html=1;" vertex="1" parent="WIyWlLk6GJQsqaUBKTNV-1">
          <mxGeometry x="490" y="130" width="120" height="60" as="geometry" />
        </mxCell>
        <mxCell id="nTr_WlQU5-zZoNNcbKpj-12" style="edgeStyle=orthogonalEdgeStyle;rounded=0;orthogonalLoop=1;jettySize=auto;html=1;" edge="1" parent="WIyWlLk6GJQsqaUBKTNV-1" source="nTr_WlQU5-zZoNNcbKpj-10">
          <mxGeometry relative="1" as="geometry">
            <mxPoint x="230" y="260" as="targetPoint" />
          </mxGeometry>
        </mxCell>
        <mxCell id="nTr_WlQU5-zZoNNcbKpj-10" value="Авторизация" style="whiteSpace=wrap;html=1;" vertex="1" parent="WIyWlLk6GJQsqaUBKTNV-1">
          <mxGeometry x="170" y="130" width="120" height="60" as="geometry" />
        </mxCell>
        <mxCell id="nTr_WlQU5-zZoNNcbKpj-15" value="Ввод логина&lt;br&gt;Ввод пароля" style="shape=parallelogram;perimeter=parallelogramPerimeter;whiteSpace=wrap;html=1;fixedSize=1;" vertex="1" parent="WIyWlLk6GJQsqaUBKTNV-1">
          <mxGeometry x="170" y="260" width="120" height="60" as="geometry" />
        </mxCell>
        <mxCell id="nTr_WlQU5-zZoNNcbKpj-20" value="" style="edgeStyle=orthogonalEdgeStyle;rounded=0;orthogonalLoop=1;jettySize=auto;html=1;" edge="1" parent="WIyWlLk6GJQsqaUBKTNV-1" source="nTr_WlQU5-zZoNNcbKpj-16" target="nTr_WlQU5-zZoNNcbKpj-19">
          <mxGeometry relative="1" as="geometry" />
        </mxCell>
        <mxCell id="nTr_WlQU5-zZoNNcbKpj-16" value="Верно?" style="rhombus;whiteSpace=wrap;html=1;" vertex="1" parent="WIyWlLk6GJQsqaUBKTNV-1">
          <mxGeometry x="190" y="350" width="80" height="80" as="geometry" />
        </mxCell>
        <mxCell id="nTr_WlQU5-zZoNNcbKpj-17" value="" style="endArrow=classic;html=1;rounded=0;entryX=0.5;entryY=0;entryDx=0;entryDy=0;" edge="1" parent="WIyWlLk6GJQsqaUBKTNV-1" target="nTr_WlQU5-zZoNNcbKpj-16">
          <mxGeometry width="50" height="50" relative="1" as="geometry">
            <mxPoint x="230" y="320" as="sourcePoint" />
            <mxPoint x="280" y="270" as="targetPoint" />
          </mxGeometry>
        </mxCell>
        <mxCell id="nTr_WlQU5-zZoNNcbKpj-18" value="нет" style="endArrow=classic;html=1;rounded=0;exitX=0;exitY=0.5;exitDx=0;exitDy=0;" edge="1" parent="WIyWlLk6GJQsqaUBKTNV-1" source="nTr_WlQU5-zZoNNcbKpj-16">
          <mxGeometry width="50" height="50" relative="1" as="geometry">
            <mxPoint x="100" y="440" as="sourcePoint" />
            <mxPoint x="230" y="220" as="targetPoint" />
            <Array as="points">
              <mxPoint x="130" y="390" />
              <mxPoint x="130" y="220" />
            </Array>
          </mxGeometry>
        </mxCell>
        <mxCell id="nTr_WlQU5-zZoNNcbKpj-31" value="" style="edgeStyle=orthogonalEdgeStyle;rounded=0;orthogonalLoop=1;jettySize=auto;html=1;" edge="1" parent="WIyWlLk6GJQsqaUBKTNV-1" source="nTr_WlQU5-zZoNNcbKpj-19" target="nTr_WlQU5-zZoNNcbKpj-30">
          <mxGeometry relative="1" as="geometry" />
        </mxCell>
        <mxCell id="nTr_WlQU5-zZoNNcbKpj-19" value="Главная страница" style="whiteSpace=wrap;html=1;" vertex="1" parent="WIyWlLk6GJQsqaUBKTNV-1">
          <mxGeometry x="330" y="430" width="120" height="60" as="geometry" />
        </mxCell>
        <mxCell id="nTr_WlQU5-zZoNNcbKpj-24" style="edgeStyle=orthogonalEdgeStyle;rounded=0;orthogonalLoop=1;jettySize=auto;html=1;" edge="1" parent="WIyWlLk6GJQsqaUBKTNV-1" source="nTr_WlQU5-zZoNNcbKpj-21" target="nTr_WlQU5-zZoNNcbKpj-27">
          <mxGeometry relative="1" as="geometry">
            <mxPoint x="550" y="400" as="targetPoint" />
          </mxGeometry>
        </mxCell>
        <mxCell id="nTr_WlQU5-zZoNNcbKpj-21" value="Ввод почты&lt;div&gt;Ввод никнейма&lt;/div&gt;&lt;div&gt;Ввод пароля&lt;/div&gt;&lt;div&gt;Повторение пароля&lt;/div&gt;" style="shape=parallelogram;perimeter=parallelogramPerimeter;whiteSpace=wrap;html=1;fixedSize=1;" vertex="1" parent="WIyWlLk6GJQsqaUBKTNV-1">
          <mxGeometry x="475" y="260" width="150" height="80" as="geometry" />
        </mxCell>
        <mxCell id="nTr_WlQU5-zZoNNcbKpj-28" value="да" style="edgeStyle=orthogonalEdgeStyle;rounded=0;orthogonalLoop=1;jettySize=auto;html=1;" edge="1" parent="WIyWlLk6GJQsqaUBKTNV-1" source="nTr_WlQU5-zZoNNcbKpj-27">
          <mxGeometry relative="1" as="geometry">
            <mxPoint x="230" y="220" as="targetPoint" />
            <Array as="points">
              <mxPoint x="311" y="400" />
              <mxPoint x="311" y="220" />
            </Array>
          </mxGeometry>
        </mxCell>
        <mxCell id="nTr_WlQU5-zZoNNcbKpj-29" value="нет" style="edgeStyle=orthogonalEdgeStyle;rounded=0;orthogonalLoop=1;jettySize=auto;html=1;" edge="1" parent="WIyWlLk6GJQsqaUBKTNV-1" source="nTr_WlQU5-zZoNNcbKpj-27">
          <mxGeometry relative="1" as="geometry">
            <mxPoint x="550" y="220" as="targetPoint" />
            <Array as="points">
              <mxPoint x="660" y="400" />
            </Array>
          </mxGeometry>
        </mxCell>
        <mxCell id="nTr_WlQU5-zZoNNcbKpj-27" value="Все подходит?" style="rhombus;whiteSpace=wrap;html=1;" vertex="1" parent="WIyWlLk6GJQsqaUBKTNV-1">
          <mxGeometry x="510" y="360" width="80" height="80" as="geometry" />
        </mxCell>
        <mxCell id="nTr_WlQU5-zZoNNcbKpj-32" value="создать" style="edgeStyle=orthogonalEdgeStyle;rounded=0;orthogonalLoop=1;jettySize=auto;html=1;entryX=1;entryY=0.5;entryDx=0;entryDy=0;" edge="1" parent="WIyWlLk6GJQsqaUBKTNV-1" source="nTr_WlQU5-zZoNNcbKpj-30" target="nTr_WlQU5-zZoNNcbKpj-35">
          <mxGeometry relative="1" as="geometry">
            <mxPoint x="150" y="575" as="targetPoint" />
            <Array as="points" />
          </mxGeometry>
        </mxCell>
        <mxCell id="nTr_WlQU5-zZoNNcbKpj-33" value="присоедениться" style="edgeStyle=orthogonalEdgeStyle;rounded=0;orthogonalLoop=1;jettySize=auto;html=1;" edge="1" parent="WIyWlLk6GJQsqaUBKTNV-1" target="nTr_WlQU5-zZoNNcbKpj-34">
          <mxGeometry x="-0.2667" relative="1" as="geometry">
            <mxPoint x="605" y="574.5" as="targetPoint" />
            <mxPoint x="455" y="574.5" as="sourcePoint" />
            <mxPoint as="offset" />
          </mxGeometry>
        </mxCell>
        <mxCell id="nTr_WlQU5-zZoNNcbKpj-30" value="Создать лобби\приседениться в лобби" style="rhombus;whiteSpace=wrap;html=1;" vertex="1" parent="WIyWlLk6GJQsqaUBKTNV-1">
          <mxGeometry x="325" y="520" width="130" height="110" as="geometry" />
        </mxCell>
        <mxCell id="nTr_WlQU5-zZoNNcbKpj-38" style="edgeStyle=orthogonalEdgeStyle;rounded=0;orthogonalLoop=1;jettySize=auto;html=1;entryX=0.5;entryY=0;entryDx=0;entryDy=0;" edge="1" parent="WIyWlLk6GJQsqaUBKTNV-1" source="nTr_WlQU5-zZoNNcbKpj-34" target="nTr_WlQU5-zZoNNcbKpj-39">
          <mxGeometry relative="1" as="geometry">
            <mxPoint x="670" y="630" as="targetPoint" />
          </mxGeometry>
        </mxCell>
        <mxCell id="nTr_WlQU5-zZoNNcbKpj-34" value="Ввести ключ для входа" style="rounded=0;whiteSpace=wrap;html=1;" vertex="1" parent="WIyWlLk6GJQsqaUBKTNV-1">
          <mxGeometry x="580" y="545" width="120" height="60" as="geometry" />
        </mxCell>
        <mxCell id="nTr_WlQU5-zZoNNcbKpj-36" style="edgeStyle=orthogonalEdgeStyle;rounded=0;orthogonalLoop=1;jettySize=auto;html=1;" edge="1" parent="WIyWlLk6GJQsqaUBKTNV-1" source="nTr_WlQU5-zZoNNcbKpj-35" target="nTr_WlQU5-zZoNNcbKpj-37">
          <mxGeometry relative="1" as="geometry">
            <mxPoint x="90" y="640" as="targetPoint" />
          </mxGeometry>
        </mxCell>
        <mxCell id="nTr_WlQU5-zZoNNcbKpj-35" value="Создание лобби" style="rounded=0;whiteSpace=wrap;html=1;" vertex="1" parent="WIyWlLk6GJQsqaUBKTNV-1">
          <mxGeometry x="100" y="545" width="120" height="60" as="geometry" />
        </mxCell>
        <mxCell id="nTr_WlQU5-zZoNNcbKpj-45" value="" style="edgeStyle=orthogonalEdgeStyle;rounded=0;orthogonalLoop=1;jettySize=auto;html=1;" edge="1" parent="WIyWlLk6GJQsqaUBKTNV-1" source="nTr_WlQU5-zZoNNcbKpj-37" target="nTr_WlQU5-zZoNNcbKpj-44">
          <mxGeometry relative="1" as="geometry" />
        </mxCell>
        <mxCell id="nTr_WlQU5-zZoNNcbKpj-37" value="Получен сгенерированный код доступа в лобби" style="rounded=0;whiteSpace=wrap;html=1;" vertex="1" parent="WIyWlLk6GJQsqaUBKTNV-1">
          <mxGeometry x="100" y="630" width="120" height="50" as="geometry" />
        </mxCell>
        <mxCell id="nTr_WlQU5-zZoNNcbKpj-47" value="" style="edgeStyle=orthogonalEdgeStyle;rounded=0;orthogonalLoop=1;jettySize=auto;html=1;" edge="1" parent="WIyWlLk6GJQsqaUBKTNV-1" source="nTr_WlQU5-zZoNNcbKpj-39" target="nTr_WlQU5-zZoNNcbKpj-46">
          <mxGeometry relative="1" as="geometry" />
        </mxCell>
        <mxCell id="nTr_WlQU5-zZoNNcbKpj-39" value="Вход в лобби" style="rounded=0;whiteSpace=wrap;html=1;" vertex="1" parent="WIyWlLk6GJQsqaUBKTNV-1">
          <mxGeometry x="580" y="620" width="120" height="60" as="geometry" />
        </mxCell>
        <mxCell id="nTr_WlQU5-zZoNNcbKpj-50" style="edgeStyle=orthogonalEdgeStyle;rounded=0;orthogonalLoop=1;jettySize=auto;html=1;exitX=0.5;exitY=1;exitDx=0;exitDy=0;entryX=0.5;entryY=0;entryDx=0;entryDy=0;" edge="1" parent="WIyWlLk6GJQsqaUBKTNV-1" source="nTr_WlQU5-zZoNNcbKpj-44">
          <mxGeometry relative="1" as="geometry">
            <mxPoint x="160" y="790" as="targetPoint" />
          </mxGeometry>
        </mxCell>
        <mxCell id="nTr_WlQU5-zZoNNcbKpj-44" value="Начало игры&lt;div&gt;&lt;br/&gt;&lt;/div&gt;" style="rounded=0;whiteSpace=wrap;html=1;" vertex="1" parent="WIyWlLk6GJQsqaUBKTNV-1">
          <mxGeometry x="100" y="700" width="120" height="60" as="geometry" />
        </mxCell>
        <mxCell id="nTr_WlQU5-zZoNNcbKpj-87" value="" style="edgeStyle=orthogonalEdgeStyle;rounded=0;orthogonalLoop=1;jettySize=auto;html=1;" edge="1" parent="WIyWlLk6GJQsqaUBKTNV-1" source="nTr_WlQU5-zZoNNcbKpj-46" target="nTr_WlQU5-zZoNNcbKpj-86">
          <mxGeometry relative="1" as="geometry" />
        </mxCell>
        <mxCell id="nTr_WlQU5-zZoNNcbKpj-46" value="Начало игры" style="rounded=0;whiteSpace=wrap;html=1;" vertex="1" parent="WIyWlLk6GJQsqaUBKTNV-1">
          <mxGeometry x="580" y="700" width="120" height="60" as="geometry" />
        </mxCell>
        <mxCell id="nTr_WlQU5-zZoNNcbKpj-61" value="" style="edgeStyle=orthogonalEdgeStyle;rounded=0;orthogonalLoop=1;jettySize=auto;html=1;" edge="1" parent="WIyWlLk6GJQsqaUBKTNV-1" source="nTr_WlQU5-zZoNNcbKpj-59" target="nTr_WlQU5-zZoNNcbKpj-60">
          <mxGeometry relative="1" as="geometry" />
        </mxCell>
        <mxCell id="nTr_WlQU5-zZoNNcbKpj-59" value="Объявление темы&lt;br&gt;n=1" style="rounded=0;whiteSpace=wrap;html=1;" vertex="1" parent="WIyWlLk6GJQsqaUBKTNV-1">
          <mxGeometry x="100" y="790" width="120" height="30" as="geometry" />
        </mxCell>
        <mxCell id="nTr_WlQU5-zZoNNcbKpj-62" style="edgeStyle=orthogonalEdgeStyle;rounded=0;orthogonalLoop=1;jettySize=auto;html=1;" edge="1" parent="WIyWlLk6GJQsqaUBKTNV-1" source="nTr_WlQU5-zZoNNcbKpj-60">
          <mxGeometry relative="1" as="geometry">
            <mxPoint x="160" y="900" as="targetPoint" />
          </mxGeometry>
        </mxCell>
        <mxCell id="nTr_WlQU5-zZoNNcbKpj-60" value="5 раз" style="shape=hexagon;perimeter=hexagonPerimeter2;whiteSpace=wrap;html=1;fixedSize=1;rounded=0;" vertex="1" parent="WIyWlLk6GJQsqaUBKTNV-1">
          <mxGeometry x="100" y="840" width="120" height="40" as="geometry" />
        </mxCell>
        <mxCell id="nTr_WlQU5-zZoNNcbKpj-64" style="edgeStyle=orthogonalEdgeStyle;rounded=0;orthogonalLoop=1;jettySize=auto;html=1;" edge="1" parent="WIyWlLk6GJQsqaUBKTNV-1" target="nTr_WlQU5-zZoNNcbKpj-65">
          <mxGeometry relative="1" as="geometry">
            <mxPoint x="160" y="960" as="targetPoint" />
            <mxPoint x="160" y="930" as="sourcePoint" />
          </mxGeometry>
        </mxCell>
        <mxCell id="nTr_WlQU5-zZoNNcbKpj-70" value="Правильно" style="edgeStyle=orthogonalEdgeStyle;rounded=0;orthogonalLoop=1;jettySize=auto;html=1;entryX=0.5;entryY=0;entryDx=0;entryDy=0;" edge="1" parent="WIyWlLk6GJQsqaUBKTNV-1" source="nTr_WlQU5-zZoNNcbKpj-65" target="nTr_WlQU5-zZoNNcbKpj-68">
          <mxGeometry relative="1" as="geometry" />
        </mxCell>
        <mxCell id="nTr_WlQU5-zZoNNcbKpj-65" value="Игрок отвечает" style="rhombus;whiteSpace=wrap;html=1;" vertex="1" parent="WIyWlLk6GJQsqaUBKTNV-1">
          <mxGeometry x="120" y="960" width="80" height="50" as="geometry" />
        </mxCell>
        <mxCell id="nTr_WlQU5-zZoNNcbKpj-68" value="Зачесть" style="rounded=0;whiteSpace=wrap;html=1;" vertex="1" parent="WIyWlLk6GJQsqaUBKTNV-1">
          <mxGeometry x="230" y="1010" width="60" height="20" as="geometry" />
        </mxCell>
        <mxCell id="nTr_WlQU5-zZoNNcbKpj-69" value="Не зачесть" style="rounded=0;whiteSpace=wrap;html=1;" vertex="1" parent="WIyWlLk6GJQsqaUBKTNV-1">
          <mxGeometry x="20" y="1010" width="70" height="20" as="geometry" />
        </mxCell>
        <mxCell id="nTr_WlQU5-zZoNNcbKpj-71" value="неправильно" style="edgeStyle=orthogonalEdgeStyle;rounded=0;orthogonalLoop=1;jettySize=auto;html=1;entryX=0.429;entryY=0;entryDx=0;entryDy=0;entryPerimeter=0;" edge="1" parent="WIyWlLk6GJQsqaUBKTNV-1" source="nTr_WlQU5-zZoNNcbKpj-65" target="nTr_WlQU5-zZoNNcbKpj-69">
          <mxGeometry relative="1" as="geometry" />
        </mxCell>
        <mxCell id="nTr_WlQU5-zZoNNcbKpj-72" value="Зачитать вопрос за 10*n" style="shape=hexagon;perimeter=hexagonPerimeter2;whiteSpace=wrap;html=1;fixedSize=1;size=10;" vertex="1" parent="WIyWlLk6GJQsqaUBKTNV-1">
          <mxGeometry x="80" y="900" width="160" height="30" as="geometry" />
        </mxCell>
        <mxCell id="nTr_WlQU5-zZoNNcbKpj-79" value="&amp;nbsp; &amp;nbsp; &amp;nbsp;Да n+1" style="edgeStyle=orthogonalEdgeStyle;rounded=0;orthogonalLoop=1;jettySize=auto;html=1;entryX=0;entryY=0.5;entryDx=0;entryDy=0;" edge="1" parent="WIyWlLk6GJQsqaUBKTNV-1" source="nTr_WlQU5-zZoNNcbKpj-74" target="nTr_WlQU5-zZoNNcbKpj-72">
          <mxGeometry x="0.6471" y="5" relative="1" as="geometry">
            <mxPoint x="10" y="910" as="targetPoint" />
            <Array as="points">
              <mxPoint x="10" y="1070" />
              <mxPoint x="10" y="915" />
            </Array>
            <mxPoint as="offset" />
          </mxGeometry>
        </mxCell>
        <mxCell id="nTr_WlQU5-zZoNNcbKpj-81" value="нет" style="edgeStyle=orthogonalEdgeStyle;rounded=0;orthogonalLoop=1;jettySize=auto;html=1;" edge="1" parent="WIyWlLk6GJQsqaUBKTNV-1">
          <mxGeometry relative="1" as="geometry">
            <mxPoint x="160" y="940" as="targetPoint" />
            <mxPoint x="195" y="1070" as="sourcePoint" />
            <Array as="points">
              <mxPoint x="320" y="1070" />
            </Array>
          </mxGeometry>
        </mxCell>
        <mxCell id="nTr_WlQU5-zZoNNcbKpj-74" value="Время вышло?" style="rhombus;whiteSpace=wrap;html=1;direction=south;" vertex="1" parent="WIyWlLk6GJQsqaUBKTNV-1">
          <mxGeometry x="125" y="1040" width="70" height="60" as="geometry" />
        </mxCell>
        <mxCell id="nTr_WlQU5-zZoNNcbKpj-88" style="edgeStyle=orthogonalEdgeStyle;rounded=0;orthogonalLoop=1;jettySize=auto;html=1;" edge="1" parent="WIyWlLk6GJQsqaUBKTNV-1" source="nTr_WlQU5-zZoNNcbKpj-86">
          <mxGeometry relative="1" as="geometry">
            <mxPoint x="640" y="870" as="targetPoint" />
          </mxGeometry>
        </mxCell>
        <mxCell id="nTr_WlQU5-zZoNNcbKpj-86" value="Вопрос услышан" style="shape=hexagon;perimeter=hexagonPerimeter2;whiteSpace=wrap;html=1;fixedSize=1;rounded=0;" vertex="1" parent="WIyWlLk6GJQsqaUBKTNV-1">
          <mxGeometry x="580" y="800" width="120" height="40" as="geometry" />
        </mxCell>
        <mxCell id="nTr_WlQU5-zZoNNcbKpj-92" value="нет" style="edgeStyle=orthogonalEdgeStyle;rounded=0;orthogonalLoop=1;jettySize=auto;html=1;entryX=0;entryY=0.5;entryDx=0;entryDy=0;" edge="1" parent="WIyWlLk6GJQsqaUBKTNV-1" source="nTr_WlQU5-zZoNNcbKpj-90" target="nTr_WlQU5-zZoNNcbKpj-86">
          <mxGeometry relative="1" as="geometry">
            <mxPoint x="540" y="820" as="targetPoint" />
            <Array as="points">
              <mxPoint x="541" y="900" />
              <mxPoint x="541" y="820" />
            </Array>
          </mxGeometry>
        </mxCell>
        <mxCell id="nTr_WlQU5-zZoNNcbKpj-95" value="Да" style="edgeStyle=orthogonalEdgeStyle;rounded=0;orthogonalLoop=1;jettySize=auto;html=1;" edge="1" parent="WIyWlLk6GJQsqaUBKTNV-1" source="nTr_WlQU5-zZoNNcbKpj-90">
          <mxGeometry relative="1" as="geometry">
            <mxPoint x="640" y="960" as="targetPoint" />
          </mxGeometry>
        </mxCell>
        <mxCell id="nTr_WlQU5-zZoNNcbKpj-90" value="Отвечаешь?" style="rhombus;whiteSpace=wrap;html=1;" vertex="1" parent="WIyWlLk6GJQsqaUBKTNV-1">
          <mxGeometry x="600" y="870" width="80" height="60" as="geometry" />
        </mxCell>
        <mxCell id="nTr_WlQU5-zZoNNcbKpj-99" value="нет" style="edgeStyle=orthogonalEdgeStyle;rounded=0;orthogonalLoop=1;jettySize=auto;html=1;" edge="1" parent="WIyWlLk6GJQsqaUBKTNV-1" source="nTr_WlQU5-zZoNNcbKpj-96" target="nTr_WlQU5-zZoNNcbKpj-98">
          <mxGeometry relative="1" as="geometry" />
        </mxCell>
        <mxCell id="nTr_WlQU5-zZoNNcbKpj-101" value="да" style="edgeStyle=orthogonalEdgeStyle;rounded=0;orthogonalLoop=1;jettySize=auto;html=1;" edge="1" parent="WIyWlLk6GJQsqaUBKTNV-1" source="nTr_WlQU5-zZoNNcbKpj-96" target="nTr_WlQU5-zZoNNcbKpj-100">
          <mxGeometry relative="1" as="geometry" />
        </mxCell>
        <mxCell id="nTr_WlQU5-zZoNNcbKpj-96" value="Правильно?" style="rhombus;whiteSpace=wrap;html=1;" vertex="1" parent="WIyWlLk6GJQsqaUBKTNV-1">
          <mxGeometry x="600" y="960" width="80" height="50" as="geometry" />
        </mxCell>
        <mxCell id="nTr_WlQU5-zZoNNcbKpj-103" style="edgeStyle=orthogonalEdgeStyle;rounded=0;orthogonalLoop=1;jettySize=auto;html=1;" edge="1" parent="WIyWlLk6GJQsqaUBKTNV-1" source="nTr_WlQU5-zZoNNcbKpj-98">
          <mxGeometry relative="1" as="geometry">
            <mxPoint x="580" y="820" as="targetPoint" />
            <Array as="points">
              <mxPoint x="490" y="891" />
              <mxPoint x="491" y="891" />
              <mxPoint x="491" y="820" />
            </Array>
          </mxGeometry>
        </mxCell>
        <mxCell id="nTr_WlQU5-zZoNNcbKpj-98" value="Вычесть из суммы очков номинал вопроса" style="whiteSpace=wrap;html=1;" vertex="1" parent="WIyWlLk6GJQsqaUBKTNV-1">
          <mxGeometry x="440" y="961.25" width="100" height="47.5" as="geometry" />
        </mxCell>
        <mxCell id="nTr_WlQU5-zZoNNcbKpj-102" style="edgeStyle=orthogonalEdgeStyle;rounded=0;orthogonalLoop=1;jettySize=auto;html=1;entryX=1;entryY=0.5;entryDx=0;entryDy=0;" edge="1" parent="WIyWlLk6GJQsqaUBKTNV-1" source="nTr_WlQU5-zZoNNcbKpj-100" target="nTr_WlQU5-zZoNNcbKpj-86">
          <mxGeometry relative="1" as="geometry">
            <mxPoint x="760" y="820" as="targetPoint" />
            <Array as="points">
              <mxPoint x="760" y="820" />
            </Array>
          </mxGeometry>
        </mxCell>
        <mxCell id="nTr_WlQU5-zZoNNcbKpj-100" value="Прибавить к сумме номинал вопроса" style="whiteSpace=wrap;html=1;" vertex="1" parent="WIyWlLk6GJQsqaUBKTNV-1">
          <mxGeometry x="720" y="955" width="80" height="60" as="geometry" />
        </mxCell>
      </root>
    </mxGraphModel>
  </diagram>
</mxfile>
